<svg preserveAspectRatio="none" width="100%" height="100%" overflow="visible" style="display: block;" viewBox="0 0 13.999 15.9999" fill="none" xmlns="http://www.w3.org/2000/svg">
<g id="Component 75">
<path id="InicioIconActive" d="M6.08203 0.305075C6.66665 -0.129204 7.47638 -0.100051 8.03125 0.393943L8.03027 0.394919L13.458 5.22109H13.457C13.805 5.5303 13.9989 5.97618 13.999 6.43691C13.999 6.45724 13.9981 6.47819 13.9961 6.49843L13.21 14.4516C13.1784 15.2884 12.513 15.9992 11.6436 15.9994H2.39648C1.52355 15.9992 0.8558 15.2829 0.829102 14.4418L0.00390625 6.54629C0.00168805 6.52484 0 6.50241 0 6.48086C0.000266325 6.02158 0.193031 5.57825 0.536133 5.26992H0.537109L5.96875 0.397849L6.08203 0.305075ZM5.63867 8.66347C5.05946 8.66355 4.58998 9.1331 4.58984 9.7123V14.9506H9.77344V9.7123C9.7733 9.13312 9.3038 8.66359 8.72461 8.66347H5.63867Z" fill="var(--fill-0, #222222)"/>
</g>
</svg>
